<svg viewBox="0 0 25.91 24" height="48" width="48" fill="#323330" xmlns="http://www.w3.org/2000/svg"><style>.cls-1{fill:none;stroke:#323330;stroke-linecap:round;stroke-linejoin:round;stroke-width:1.5px;}</style><path class="cls-1" d="M5.83,19.17V10.56A1.92,1.92,0,0,0,3.91,8.65H3a1.92,1.92,0,0,0-1.91,1.91V23H5.83" transform="translate(-0.05)"/><path class="cls-1" d="M14.42,19.17V16.88c0-4.47,5.76-4.83,5.76,0v4.2A1.91,1.91,0,0,0,22.1,23H23A1.91,1.91,0,0,0,25,21.08V14.27C25,6.73,16.42,7,14.41,10.71v-.14a1.91,1.91,0,0,0-1.9-1.92h-.94a1.92,1.92,0,0,0-1.91,1.91V23h4.76" transform="translate(-0.05)"/><path class="cls-1" d="M3.44,5.74A2.37,2.37,0,1,1,5.81,3.37" transform="translate(-0.05)"/></svg>
